<svg width="260" height="40" viewBox="0 0 260 40" fill="none" xmlns="http://www.w3.org/2000/svg">
<g clip-path="url(#clip0_1_669)">
<path d="M36.0223 7.24023H1.55078V41.9572H36.0223V7.24023Z" fill="#1DCA6C"/>
<path d="M224.809 7.24023V41.9572H232.39V28.4092H251.766V41.9572H259.347V7.24023H224.809ZM251.766 20.7883H232.39V14.8611H251.766V20.7883Z" fill="#222222"/>
<path d="M60.0897 14.8611V20.7883H86.6257V41.9572H52.5078V34.3364H79.4654V28.4092H52.5078V7.24023H86.6257V14.8611H60.0897Z" fill="#222222"/>
<path d="M129.411 7.24023V28.4092H102.453V41.9572H94.8711V20.7883H121.829V14.8611H94.8711V7.24023H129.411Z" fill="#222222"/>
<path d="M171.77 20.7881H137.652V28.4088H171.77V20.7881Z" fill="#222222"/>
<path d="M171.77 34.3359H137.652V41.9567H171.77V34.3359Z" fill="#222222"/>
<path d="M171.77 7.24023H137.652V14.8611H171.77V7.24023Z" fill="#222222"/>
<path d="M193.306 34.3364H216.05V41.9572H181.512V7.24023H189.093V27.5623L207.627 7.24023H217.314L193.306 34.3364Z" fill="#222222"/>
<path d="M5.16995 32.1013L12.6469 38.9382L11.7123 30.8582L18.8777 22.7783L26.6663 30.8582L25.1086 38.9382L32.274 32.1013V22.1568L21.0585 1.95703L11.7123 15.6307V10.037L4.54688 22.1568L5.16995 32.1013Z" fill="#222222"/>
</g>
<defs>
<clipPath id="clip0_1_669">
<rect width="258.537" height="40" fill="white" transform="translate(0.623047)"/>
</clipPath>
</defs>
</svg>
