<svg width="12" height="12" viewBox="0 0 12 12" fill="none" xmlns="http://www.w3.org/2000/svg">
<path fill-rule="evenodd" clip-rule="evenodd" d="M0.251077 0.251051C0.585812 -0.0836838 1.12852 -0.0836838 1.46326 0.251051L6.00001 4.7878L10.5367 0.251077C10.8715 -0.0836585 11.4142 -0.0836585 11.7489 0.251077C12.0837 0.585812 12.0837 1.12852 11.7489 1.46326L7.2122 5.99999L11.7489 10.5367C12.0837 10.8715 12.0837 11.4142 11.7489 11.7489C11.4142 12.0837 10.8715 12.0837 10.5368 11.7489L6.00001 7.21217L1.46323 11.7489C1.1285 12.0837 0.585786 12.0837 0.251051 11.7489C-0.0836838 11.4142 -0.0836838 10.8715 0.251051 10.5368L4.78783 5.99999L0.251077 1.46323C-0.0836585 1.1285 -0.0836585 0.585786 0.251077 0.251051Z" fill="#EDF1F3"/>
</svg>
