<svg width="160" height="51" viewBox="0 0 160 51" fill="none" xmlns="http://www.w3.org/2000/svg">
<path d="M107.731 50.4125L99.7099 50.4724L107.507 31.7077L90.2087 38.1318L88.9902 38.1125L102.695 5.823L109.376 8.03716L102.018 24.6991L121.34 16.806L122.436 16.7653L107.731 50.4125Z" fill="#77D202"/>
<path d="M110.524 16.8544L105.063 8.42606L94.9624 12.7495L92.5684 7.15837L107.382 0.815674L115.629 13.5482L110.524 16.8544Z" fill="#77D202"/>
<path d="M28.3044 25.4001V27.0532H19.2144C18.3878 25.2973 16.5805 24.2651 14.2571 24.2651C10.9509 24.2651 8.7817 26.2802 8.7817 29.6378C8.7817 32.9955 10.9509 35.0083 14.2571 35.0083C16.5805 35.0083 18.39 33.9762 19.2144 32.2203L28.3044 32.1689V33.8734C26.9618 38.7793 21.3836 43.1712 14.255 43.1712C6.04291 43.1669 0 37.8992 0 29.6357C0 21.3722 6.04291 16.1023 14.255 16.1023C20.7626 16.1023 26.9083 20.1816 28.3044 25.4001Z" fill="#F5F5F5"/>
<path d="M39.1998 24.5726H31.3496V16.7224H55.6776V24.5726H47.8787V42.5472H39.202V24.5726H39.1998Z" fill="#F5F5F5"/>
<path d="M87.8174 29.6355C87.8174 37.899 83.0144 43.1689 76.4554 43.1689C73.2005 43.1689 70.4125 41.8776 68.3975 39.6056V50.5544H59.7207V16.7231H68.3975V19.6675C70.4125 17.3955 73.2005 16.1042 76.4554 16.1042C83.0144 16.1042 87.8174 21.372 87.8174 29.6376V29.6355ZM68.087 29.6355C68.087 32.9931 70.2562 35.006 73.5624 35.006C76.8687 35.006 79.0379 32.991 79.0379 29.6355C79.0379 26.28 76.8687 24.2628 73.5624 24.2628C70.2562 24.2628 68.087 26.2778 68.087 29.6355Z" fill="#F5F5F5"/>
<path d="M134.485 28.2922H133.969V42.5472H125.395V16.7224H137.17L142.386 31.7012H143.007L148.224 16.7224H159.999V42.5472H151.425V28.2922H150.857L145.795 42.5472H139.598L134.485 28.2922Z" fill="#F5F5F5"/>
</svg>
