<svg width="200" height="70" viewBox="0 0 200 70" fill="none" xmlns="http://www.w3.org/2000/svg">
<g clip-path="url(#clip0_187_229)">
<path d="M37.2064 52.6381C32.5683 52.6381 29.0114 51.3697 26.537 48.8315C24.0613 46.2933 22.8234 42.674 22.8234 37.9749C22.8234 35.2495 23.2471 32.6562 24.0932 30.1964C24.9392 27.7366 26.1539 25.567 27.7357 23.6862C29.3176 21.8069 31.2448 20.3107 33.5174 19.1976C35.7886 18.086 38.3659 17.5287 41.2495 17.5287C43.0664 17.5287 44.7513 17.771 46.3027 18.2572C47.854 18.7434 49.2008 19.4646 50.3443 20.4195C51.4879 21.3759 52.3891 22.5818 53.0465 24.0389C53.6183 25.3058 53.9419 26.7555 54.0159 28.3882C54.0348 28.7974 53.7024 29.1385 53.2932 29.1385H50.2703C49.8843 29.1385 49.5708 28.8337 49.549 28.4477C49.4228 26.1591 48.6536 24.4234 47.2416 23.2392C45.6903 21.9389 43.6934 21.2888 41.2495 21.2888C38.8057 21.2888 36.8552 21.7822 35.1152 22.769C33.3766 23.7559 31.9269 25.0329 30.7673 26.6003C29.6078 28.1676 28.7385 29.954 28.1581 31.9582C27.5776 33.9638 27.2888 35.9693 27.2888 37.9749C27.2888 39.6047 27.4919 41.0936 27.8997 42.4403C28.3061 43.7885 28.917 44.9393 29.7326 45.8957C30.5468 46.8521 31.5728 47.5965 32.8107 48.1277C34.0486 48.6603 35.5128 48.9273 37.205 48.9273C39.9623 48.9273 42.203 48.1988 43.9256 46.7418C45.5379 45.3791 46.7105 43.4881 47.4462 41.0675C47.5377 40.7656 47.8192 40.561 48.1356 40.561H51.1352C51.6083 40.561 51.9581 41.008 51.8347 41.4651C50.9364 44.7971 49.3575 47.45 47.0994 49.4207C44.6396 51.5671 41.3409 52.641 37.205 52.641L37.2064 52.6381Z" fill="white"/>
<path d="M65.5473 22.0869H56.0505C55.5905 22.0869 55.248 21.6632 55.3438 21.2147L55.8357 18.9C55.9069 18.5662 56.2015 18.3282 56.5425 18.3282H82.1275C82.5905 18.3282 82.9344 18.7578 82.8328 19.2091L82.3118 21.5238C82.2378 21.8533 81.9447 22.0884 81.6065 22.0884H71.4901C71.149 22.0884 70.853 22.3278 70.7833 22.6616L64.7274 51.3145C64.6563 51.6483 64.3617 51.8877 64.0206 51.8877H61.0326C60.574 51.8877 60.23 51.4654 60.3258 51.0155L66.2555 22.9605C66.3498 22.5107 66.0074 22.0884 65.5488 22.0884L65.5473 22.0869Z" fill="white"/>
<path d="M85.654 18.9015C85.7236 18.5662 86.0197 18.3268 86.3607 18.3268H98.9805C102.208 18.3268 104.675 19.0872 106.383 20.6067C108.091 22.1261 108.945 24.4538 108.945 27.587C108.945 28.6217 108.74 29.7566 108.334 30.9945C107.926 32.2324 107.229 33.3847 106.242 34.4498C105.256 35.515 103.939 36.4003 102.294 37.1056C100.648 37.8109 98.5872 38.1635 96.1129 38.1635H86.7337C86.3926 38.1635 86.098 38.4015 86.0269 38.7368L83.3567 51.3159C83.2856 51.6497 82.991 51.8892 82.6499 51.8892H79.659C79.2004 51.8892 78.8579 51.4683 78.9522 51.0184L85.654 18.9044V18.9015ZM97.0548 34.4005C99.4986 34.4005 101.347 33.7663 102.601 32.4965C103.854 31.2281 104.481 29.5912 104.481 27.5856C104.481 26.5509 104.331 25.6816 104.034 24.9777C103.735 24.2724 103.336 23.7079 102.835 23.2856C102.333 22.8633 101.754 22.5571 101.096 22.3684C100.439 22.1798 99.7337 22.0869 98.982 22.0869H90.1208C89.7783 22.0869 89.4837 22.3263 89.4141 22.6616L87.1328 33.5312C87.0384 33.9797 87.3809 34.402 87.8395 34.402H97.0548V34.4005Z" fill="white"/>
<path d="M110.338 52.4029C109.586 52.4029 108.849 52.3478 108.129 52.2389C107.714 52.1751 107.342 52.1054 107.01 52.027C106.633 51.9385 106.399 51.5598 106.478 51.181L106.94 48.9243C107.022 48.5282 107.411 48.2785 107.807 48.3642C108.032 48.4135 108.281 48.4599 108.551 48.502C109.146 48.5964 109.727 48.6428 110.29 48.6428C111.011 48.6428 111.669 48.5107 112.264 48.2437C112.859 47.9781 113.416 47.6255 113.932 47.1858C114.449 46.7475 114.935 46.2454 115.389 45.6823C115.844 45.1178 116.289 44.5387 116.729 43.9437L117.37 43.0527C117.5 42.8742 117.539 42.6449 117.479 42.433L110.881 19.2483C110.748 18.7868 111.095 18.3282 111.576 18.3282H114.67C114.998 18.3282 115.284 18.5488 115.368 18.8652L120.222 37.0562C120.382 37.6542 121.171 37.7877 121.518 37.2754L134.139 18.6461C134.274 18.4472 134.498 18.3282 134.737 18.3282H137.947C138.532 18.3282 138.875 18.9871 138.539 19.466L120.865 44.6969C119.862 46.138 118.899 47.3527 117.974 48.3395C117.05 49.3263 116.164 50.1187 115.318 50.7137C114.472 51.3087 113.633 51.7397 112.803 52.0067C111.973 52.2723 111.15 52.4058 110.336 52.4058L110.338 52.4029Z" fill="white"/>
<path d="M142.598 18.3269H147.596C147.953 18.3269 148.257 18.5867 148.31 18.9393L152.682 47.1859H152.776L169.159 18.6897C169.288 18.4648 169.526 18.3269 169.786 18.3269H174.681C175.139 18.3269 175.483 18.7492 175.387 19.1991L168.596 51.3131C168.525 51.6469 168.23 51.8864 167.889 51.8864H165.108C164.642 51.8864 164.299 51.4525 164.404 50.9997L171.06 22.5108H170.965L154.066 51.5279C153.937 51.75 153.699 51.8864 153.442 51.8864H150.203C149.844 51.8864 149.541 51.6237 149.487 51.2696L145.208 22.5093H145.113L139.355 51.3044C139.287 51.6426 138.991 51.8849 138.647 51.8849H135.852C135.393 51.8849 135.051 51.4626 135.145 51.0142L141.892 18.9001C141.961 18.5649 142.257 18.3254 142.598 18.3254V18.3269Z" fill="white"/>
<path d="M2.59914 37.6818C4.0346 37.6818 5.19827 36.5181 5.19827 35.0827C5.19827 33.6472 4.0346 32.4835 2.59914 32.4835C1.16367 32.4835 0 33.6472 0 35.0827C0 36.5181 1.16367 37.6818 2.59914 37.6818Z" fill="white"/>
<path d="M197.401 37.6818C198.836 37.6818 200 36.5181 200 35.0827C200 33.6472 198.836 32.4835 197.401 32.4835C195.965 32.4835 194.802 33.6472 194.802 35.0827C194.802 36.5181 195.965 37.6818 197.401 37.6818Z" fill="white"/>
<path d="M196.045 43.8713C196.848 44.0571 197.325 44.8857 197.08 45.6723C196.771 46.6678 196.375 47.8956 196.147 48.4209C195.735 49.3715 193.867 54.0284 188.997 59.157C184.343 64.0578 176.162 69.9019 163.618 69.9019H37.6302C24.6781 69.9019 16.1884 64.1928 11.3471 59.4023C8.93957 57.0208 7.19375 54.6394 6.0618 52.8805C5.92828 52.6744 5.66126 52.6033 5.44358 52.7165L2.74286 54.1169C2.41778 54.2853 2.03176 54.0386 2.04772 53.6729L2.27992 48.5646L2.51211 43.4563C2.52807 43.0906 2.93587 42.8787 3.24353 43.0761L7.55075 45.8305L11.858 48.5849C12.1671 48.7823 12.1453 49.2394 11.8202 49.4092L8.89023 50.9286C8.63917 51.0578 8.55499 51.3756 8.71028 51.6121C9.83352 53.3202 11.4241 55.4085 13.5457 57.4838C20.0008 63.7937 28.1044 66.9922 37.6302 66.9922H163.618C172.819 66.9922 180.622 63.7095 186.81 57.2356C191.175 52.6686 192.891 48.6067 193.417 47.4109C193.709 46.7491 194.096 45.6505 194.385 44.7987C194.619 44.1093 195.337 43.7102 196.045 43.8742V43.8713Z" fill="#E2FC52"/>
<path d="M3.10857 26.1287C2.30605 25.9429 1.8286 25.1143 2.07385 24.3277C2.38296 23.3322 2.77915 22.1045 3.00699 21.5791C3.41913 20.6286 5.28686 15.9716 10.1572 10.843C14.8112 5.94076 22.9917 0.0981445 35.5361 0.0981445H161.524C174.476 0.0981445 182.966 5.80725 187.807 10.5977C190.214 12.9792 191.96 15.3606 193.092 17.1195C193.226 17.3256 193.493 17.3967 193.71 17.2835L196.411 15.8831C196.736 15.7147 197.122 15.9614 197.106 16.3271L196.874 21.4354L196.642 26.5437C196.626 26.9095 196.218 27.1213 195.911 26.924L191.603 24.1695L187.296 21.4151C186.987 21.2178 187.009 20.7606 187.334 20.5908L190.264 19.0714C190.515 18.9422 190.599 18.6244 190.444 18.3879C189.321 16.6798 187.73 14.5915 185.608 12.5162C179.153 6.20633 171.05 3.00784 161.524 3.00784H35.5361C26.3354 3.00784 18.5321 6.2905 12.3441 12.7644C7.97887 17.3314 6.26353 21.3934 5.73673 22.5892C5.44504 23.2509 5.05756 24.3495 4.76877 25.2014C4.53512 25.8907 3.81677 26.2898 3.10857 26.1258V26.1287Z" fill="#E2FC52"/>
</g>
<defs>
<clipPath id="clip0_187_229">
<rect width="200" height="69.8037" fill="white" transform="translate(0 0.0981445)"/>
</clipPath>
</defs>
</svg>
