<svg width="141" height="40" viewBox="0 0 141 40" fill="none" xmlns="http://www.w3.org/2000/svg">
<g clip-path="url(#clip0_1_663)">
<path d="M116.148 36.3517V12.6999H122.986L123.256 18.4904L121.456 18.9803C121.846 17.7926 122.521 16.6939 123.48 15.6843C124.47 14.6449 125.67 13.8135 127.079 13.1899C128.518 12.5366 130.092 12.21 131.802 12.21C133.961 12.21 135.76 12.6257 137.199 13.4572C138.669 14.2886 139.778 15.4615 140.528 16.9759C141.308 18.4607 141.697 20.183 141.697 22.1428V36.3517H134.501V23.3009C134.501 22.2616 134.276 21.3559 133.826 20.5839C133.406 19.8118 132.791 19.2179 131.982 18.8022C131.202 18.3865 130.288 18.1934 129.238 18.2231C128.338 18.2231 127.529 18.3865 126.809 18.7131C126.089 19.0101 125.459 19.4109 124.92 19.9157C124.41 20.4205 124.02 20.9699 123.75 21.5638C123.51 22.1577 123.391 22.7516 123.391 23.3455V36.3517H119.792C118.742 36.3517 117.918 36.3517 117.318 36.3517C116.718 36.3517 116.328 36.3517 116.148 36.3517Z" fill="#222222"/>
<path d="M104.29 36.3521V12.7002H111.532V36.3521H104.29ZM107.888 9.30646C106.539 9.30646 105.489 8.99464 104.74 8.37108C103.99 7.71778 103.615 6.79725 103.615 5.60947C103.615 4.54046 103.99 3.66447 104.74 2.9815C105.489 2.29852 106.539 1.95703 107.888 1.95703C109.238 1.95703 110.287 2.28367 111.037 2.93695C111.816 3.56054 112.206 4.45138 112.206 5.60947C112.206 6.70816 111.816 7.59902 111.037 8.28199C110.257 8.96497 109.208 9.30646 107.888 9.30646Z" fill="#222222"/>
<path d="M83.7116 36.7526C81.2526 36.7526 79.0935 36.2329 77.2345 35.1935C75.3751 34.1247 73.9209 32.6696 72.8713 30.8285C71.8217 28.9874 71.2969 26.894 71.2969 24.5481C71.2969 22.1428 71.8217 20.0197 72.8713 18.1786C73.9507 16.3078 75.4202 14.8528 77.2792 13.8135C79.1684 12.7445 81.3725 12.21 83.8913 12.21C85.3007 12.21 86.6052 12.3881 87.8048 12.7445C89.0041 13.1008 90.0688 13.5759 90.9985 14.1698C91.9282 14.734 92.6778 15.3724 93.2474 16.0851C93.847 16.7978 94.2222 17.5105 94.3718 18.2231L92.7075 18.3122V12.6999H99.8595V36.3517H92.5726V30.1604L94.1019 30.4722C93.982 31.2442 93.6222 32.0014 93.0225 32.7438C92.4229 33.4862 91.6582 34.169 90.7286 34.7926C89.7989 35.3867 88.7345 35.8617 87.5349 36.218C86.3353 36.5743 85.0609 36.7526 83.7116 36.7526ZM85.6007 30.7394C87.1 30.7394 88.3744 30.487 89.4241 29.9822C90.5037 29.4477 91.3282 28.7202 91.8981 27.7996C92.4977 26.8494 92.7977 25.7656 92.7977 24.5481C92.7977 23.2712 92.4977 22.1725 91.8981 21.252C91.3282 20.3314 90.5037 19.6039 89.4241 19.0694C88.3744 18.5349 87.1 18.2677 85.6007 18.2677C84.1612 18.2677 82.9018 18.5349 81.8225 19.0694C80.7729 19.6039 79.9481 20.3314 79.3484 21.252C78.7488 22.1725 78.4488 23.2712 78.4488 24.5481C78.4488 25.7656 78.7488 26.8494 79.3484 27.7996C79.9481 28.7202 80.7729 29.4477 81.8225 29.9822C82.9018 30.487 84.1612 30.7394 85.6007 30.7394Z" fill="#222222"/>
<path d="M0.927734 24.5575C0.927734 22.5746 0.927734 21.5831 1.02255 20.749C1.81804 13.7507 7.43805 8.22666 14.5581 7.44477C15.4066 7.35156 16.4153 7.35156 18.4327 7.35156H27.7601V41.7634H18.4327C16.4153 41.7634 15.4066 41.7634 14.5581 41.6701C7.43805 40.8881 1.81804 35.3644 1.02255 28.3659C0.927734 27.5318 0.927734 26.5403 0.927734 24.5575Z" fill="#FF3B3B"/>
<path d="M30.0586 7.35156H31.0808C39.6678 7.35156 43.9615 7.35156 47.2416 8.9942C50.1264 10.4391 52.4721 12.7446 53.9419 15.5804C55.6131 18.8042 55.6131 23.0245 55.6131 31.4649V41.7634H30.0586V7.35156Z" fill="#FF3B3B"/>
</g>
<defs>
<clipPath id="clip0_1_663">
<rect width="140.909" height="40" fill="white"/>
</clipPath>
</defs>
</svg>
