<svg width="207" height="40" viewBox="0 0 207 40" fill="none" xmlns="http://www.w3.org/2000/svg">
<g clip-path="url(#clip0_1_690)">
<path d="M145.361 23.3198C145.251 21.6298 144.256 20.848 143.538 20.5547C143.565 18.8506 143.591 17.0902 143.327 15.4643C142.874 12.6743 139.746 7.15688 132.907 6.27947C131.514 6.12429 130.107 6.12429 128.714 6.27947C127.488 6.43207 126.292 6.76022 125.162 7.25355C123.638 7.25355 122.222 6.69429 121.712 6.19651C121.699 7.14133 121.977 8.06762 122.509 8.85318C119.898 10.9273 118.575 13.725 118.293 15.4599C118.028 17.0854 118.056 18.8398 118.081 20.5498C117.363 20.8432 116.368 21.6254 116.258 23.3154C116.147 25.0054 118.358 26.878 118.726 28.1873C119.281 30.1613 119.865 32.1299 120.929 33.921C122.115 35.9184 123.774 37.6358 125.32 38.5087C126.59 39.225 129.29 39.8732 130.807 39.8732C132.323 39.8732 135.023 39.2265 136.294 38.5087C137.841 37.6361 139.499 35.9202 140.684 33.921C141.748 32.1295 142.332 30.1613 142.888 28.1873C143.261 26.8832 145.472 25.0098 145.361 23.3198ZM121.123 16.4843C122.817 16.9928 130.739 17.2524 135.345 15.2121C135.162 15.7943 134.792 16.7024 132.698 17.3939C135.276 17.1387 136.603 16.4121 137.711 14.5084C138.355 16.2076 139.825 16.3291 140.1 18.5861C140.1 19.1854 140.132 19.9073 140.124 20.508C140.124 20.6617 140.124 20.7998 140.124 20.9458L138.978 21.0517C138.106 20.5584 136.711 20.2958 135.117 20.365C133.626 20.4265 131.795 20.7032 131.158 21.6339H130.082C129.446 20.7028 127.613 20.4265 126.125 20.365C124.532 20.2973 123.136 20.5584 122.263 21.0517L121.117 20.9458C121.117 20.7998 121.117 20.6554 121.117 20.508C121.092 19.9076 121.12 17.085 121.123 16.4843ZM138.152 25.1021C137.905 25.2417 137.302 25.3973 135.851 25.3973C135.621 25.3973 135.384 25.3973 135.155 25.388C133.931 25.3591 133.533 25.1147 133.185 24.6428C132.838 24.171 132.533 23.0969 132.475 22.3902C132.738 22.2073 133.579 21.9169 135.169 21.851C136.555 21.7958 137.589 22.0324 138.109 22.2795C138.362 23.4213 138.358 24.775 138.152 25.1021ZM128.744 22.3828C128.688 23.0898 128.392 24.1576 128.033 24.6443C127.673 25.1313 127.287 25.3591 126.063 25.3895C125.831 25.3895 125.596 25.3987 125.367 25.3987C123.916 25.3987 123.313 25.245 123.066 25.1036C122.862 24.7765 122.857 23.4228 123.111 22.2828C123.631 22.0339 124.668 21.7958 126.051 21.8543C127.659 21.9202 128.5 22.2169 128.744 22.3828ZM130.613 30.7595H133.456C134.048 30.7595 134.668 31.0191 134.971 31.4554C135.285 31.9613 135.375 32.5724 135.22 33.1454C135.082 33.6628 134.627 34.4558 134.018 35.0565C133.515 35.5528 132.541 35.2991 132.251 34.8091C131.961 34.3191 131.739 33.9995 131.43 33.9995H129.789C129.478 33.9995 129.257 34.3187 128.968 34.8091C128.68 35.2995 127.706 35.5528 127.201 35.0565C126.593 34.4558 126.138 33.6628 125.999 33.1454C125.845 32.5721 125.934 31.9613 126.248 31.4554C126.56 31.0191 127.173 30.7595 127.763 30.7595H130.613ZM140.323 27.9017C140.005 28.6473 139.638 29.3702 139.22 30.0665C138.954 30.5169 138.641 31.0435 138.302 31.5461C138.328 30.998 138.226 30.451 138.003 29.9484C137.048 28.3058 130.616 28.3287 130.616 28.3287C130.616 28.3287 124.182 28.3073 123.229 29.9484C123.006 30.451 122.904 30.998 122.93 31.5461C122.593 31.0435 122.278 30.5169 122.012 30.0665C121.595 29.3702 121.226 28.6473 120.909 27.9017C120.54 27.0291 120.54 26.8613 120.54 25.7613C120.54 25.041 120.968 23.0191 121.09 22.4595L121.557 22.495C121.365 23.675 121.211 25.6876 122.217 26.3361C122.817 26.7202 123.791 26.8924 125.375 26.8924C125.617 26.8924 125.864 26.8924 126.106 26.8836C127.684 26.845 128.568 26.4654 129.261 25.5265C129.564 25.0802 129.792 24.5884 129.937 24.0702H131.291C131.436 24.588 131.664 25.0802 131.967 25.5265C132.658 26.4654 133.543 26.8465 135.122 26.8836C135.364 26.8836 135.611 26.8924 135.853 26.8924C137.437 26.8924 138.411 26.7202 139.011 26.3361C140.017 25.691 139.863 23.678 139.671 22.495L140.138 22.4595C140.26 23.0187 140.688 25.0421 140.688 25.7613C140.685 26.8613 140.686 27.0287 140.323 27.9017Z" fill="#222222"/>
<path d="M12.9417 15.8404C12.9417 14.0781 14.4051 13.3204 16.0555 13.3204C19.0545 13.3204 22.5624 15.9678 24.2766 15.9678C26.4566 15.9678 28.0431 14.0133 28.0431 11.9392C28.051 7.46665 21.0989 5.39258 16.5708 5.39258C9.30422 5.39258 4.13765 9.6685 4.13765 15.9618C4.13765 26.3404 20.0803 25.7104 20.0803 29.8663C20.0803 31.5655 19.2474 32.4429 16.4432 32.4429C12.1099 32.4429 10.517 29.37 6.9452 29.37C4.39176 29.3607 2.99023 32.0048 2.99023 33.3848C2.99023 37.4763 10.6446 40.3722 15.8033 40.3722C23.7162 40.3722 28.8824 35.7785 28.8824 29.7385C28.8764 19.4174 12.9417 20.047 12.9417 15.8404Z" fill="#3179FF"/>
<path d="M58.5916 28.7966C56.1672 28.7966 52.916 32.4429 48.195 32.4429C43.9255 32.4429 40.1593 30.3685 39.5287 25.9007H59.1009C61.9036 25.9007 63.1182 24.5767 63.1182 21.8722C63.1197 14.3267 56.552 5.39258 46.6043 5.39258C36.9115 5.39258 30.1523 13.76 30.1523 22.9433C30.1523 32.947 37.0391 40.3726 47.3715 40.3726C54.1945 40.3726 62.3517 36.5992 62.3517 32.6981C62.3517 30.7433 60.5644 28.7966 58.5916 28.7966ZM46.6024 12.9392C50.8719 12.9392 53.4254 15.8985 53.9347 19.8626H39.3358C39.7813 16.0263 42.5217 12.9392 46.6043 12.9392H46.6024Z" fill="#3179FF"/>
<path d="M84.0338 5.39258C79.7005 5.39258 76.9508 6.64627 75.1743 9.10146C74.8522 7.02738 73.3231 5.76739 70.9704 5.76739C68.2939 5.76739 66.3789 7.7785 66.3789 10.8007V34.9563C66.3789 37.98 68.2943 39.9896 70.9704 39.9896C73.6466 39.9896 75.5496 37.98 75.5496 34.9563V19.1696C75.5496 15.6433 77.6515 12.9392 81.4121 12.9392C84.7331 12.9392 87.4096 14.9504 87.4096 19.1696V34.9566C87.4096 37.9804 89.3186 39.99 92.0016 39.99C94.6841 39.99 96.5931 37.9789 96.5931 34.9566V17.5952C96.5976 9.91591 91.2381 5.39258 84.0338 5.39258Z" fill="#3179FF"/>
<path d="M106.289 5.76758C103.606 5.76758 101.697 7.77869 101.697 10.8009V34.9565C101.697 37.9802 103.606 39.9898 106.289 39.9898C108.972 39.9898 110.873 37.9787 110.873 34.9565V10.8009C110.873 7.77869 108.964 5.76758 106.289 5.76758Z" fill="#3179FF"/>
<path d="M167.051 5.76758C164.181 5.76758 162.33 7.02757 160.615 9.54091H160.486C160.486 6.64461 158.442 5.76758 156.023 5.76758C153.727 5.76758 151.303 7.27499 151.303 10.2983V34.9565C151.303 37.9802 153.218 39.9898 155.894 39.9898C158.57 39.9898 160.486 37.9787 160.486 34.9565V21.052C160.486 17.4691 163.289 16.2739 166.032 15.0139C168.776 13.7539 171.513 13.5698 171.513 10.6105C171.513 7.33906 169.283 5.76758 167.051 5.76758Z" fill="#3179FF"/>
<path d="M174.487 36.1377C175.508 36.1377 176.335 36.954 176.335 37.9614C176.335 38.9688 175.508 39.7851 174.487 39.7851C173.467 39.7851 172.641 38.9706 172.639 37.9644C172.638 36.9562 173.466 36.1384 174.487 36.1377Z" fill="#222222"/>
<path d="M189.996 39.8225C188.928 39.8225 188.235 39.2525 188.09 38.3121C187.282 39.4232 186.04 39.9932 184.076 39.9932C180.807 39.9932 178.389 37.9421 178.389 34.4617V26.5954C178.389 25.228 179.255 24.3154 180.467 24.3154C181.68 24.3154 182.546 25.2265 182.546 26.5954V33.7476C182.546 35.6558 183.759 36.5684 185.26 36.5684C186.963 36.5684 187.916 35.3395 187.916 33.7476V26.5954C187.916 25.228 188.782 24.3154 189.995 24.3154C191.207 24.3154 192.073 25.2265 192.073 26.5954V37.5362C192.075 38.9113 191.207 39.8225 189.996 39.8225Z" fill="#222222"/>
<path d="M199.668 39.9943C196.318 39.9943 193.922 38.3136 193.922 35.0932C193.922 30.3639 199.552 29.7647 203.393 29.7647V28.6539C203.393 27.8565 202.728 27.5787 201.575 27.5787C199.148 27.5787 198.716 28.9754 197.618 28.9754C196.32 28.9754 195.799 28.0643 195.799 27.2376C195.799 25.5847 199.121 24.165 201.574 24.165C205.414 24.165 207.552 25.7891 207.552 28.7528V37.6424C207.552 38.8395 206.744 39.8365 205.528 39.8365C204.632 39.8365 203.882 39.6095 203.564 38.3265C202.844 39.4243 201.055 39.9943 199.668 39.9943ZM200.418 36.5758C202.584 36.5758 203.565 35.465 203.565 33.5032V32.8473C201.054 32.8473 197.905 32.5906 197.905 35.098C197.906 36.2039 199.177 36.5821 200.42 36.5821L200.418 36.5758Z" fill="#222222"/>
</g>
<defs>
<clipPath id="clip0_1_690">
<rect width="206.25" height="40" fill="white" transform="translate(0.75)"/>
</clipPath>
</defs>
</svg>
