<svg width="126" height="40" viewBox="0 0 126 40" fill="none" xmlns="http://www.w3.org/2000/svg">
<g clip-path="url(#clip0_1_679)">
<path d="M22.9013 12.8574L13.5013 33.6574H2.30127V12.8574H7.80127V28.7574H9.90127L16.7013 12.8574H22.9013Z" fill="#222222"/>
<path d="M32.2013 33.6568C29.1013 33.6568 26.6013 32.7568 24.7013 30.8568C22.8013 28.9568 21.8013 26.5568 21.8013 23.5568C21.8013 20.2568 23.0013 17.4568 25.3013 15.1568C27.6013 12.8568 30.5013 11.7568 33.8013 11.7568C36.8013 11.7568 39.3013 12.6568 41.2013 14.5568C43.1013 16.4568 44.0013 18.8568 44.0013 21.6568C44.0013 21.7568 44.0013 22.3568 43.9013 23.1568L43.8013 23.8568H27.6013C27.7013 25.3568 28.1013 26.5568 29.0013 27.4568C29.8013 28.3568 31.0013 28.7568 32.3013 28.7568C33.8013 28.7568 35.1013 28.3568 36.2013 27.5568C36.7013 27.1568 37.1013 26.7568 37.4013 26.3568H43.6013C43.0013 27.6568 42.2013 28.8568 41.2013 29.9568C38.8013 32.3568 35.8013 33.6568 32.2013 33.6568ZM28.2013 20.4568H38.1013C37.9013 19.2568 37.4013 18.3568 36.6013 17.6568C35.8013 16.9568 34.8013 16.5568 33.7013 16.5568C31.2013 16.5568 29.4013 17.8568 28.2013 20.4568Z" fill="#222222"/>
<path d="M56.4017 33.6568C53.5017 33.6568 51.1017 32.7568 49.1017 30.9568C47.2017 29.1568 46.2017 26.7568 46.2017 23.6568C46.2017 20.3568 47.4017 17.5568 49.7017 15.2568C52.0017 12.9568 54.8017 11.7568 58.0017 11.7568C61.9017 11.7568 64.7017 13.1568 66.4017 15.8568C67.2017 17.1568 67.7017 18.4568 67.9017 19.9568H62.3017C62.1017 19.3568 61.8017 18.7568 61.5017 18.2568C60.6017 17.1568 59.4017 16.5568 57.8017 16.5568C56.3017 16.5568 54.9017 17.2568 53.8017 18.5568C52.7017 19.8568 52.0017 21.5568 52.0017 23.5568C52.0017 25.1568 52.4017 26.4568 53.3017 27.3568C54.2017 28.2568 55.3017 28.7568 56.6017 28.7568C58.2017 28.7568 59.5017 28.2568 60.5017 27.1568C60.9017 26.7568 61.3017 26.1568 61.6017 25.5568H67.4017C66.8017 27.0568 66.1017 28.3568 65.1017 29.5568C62.8017 32.2568 59.9017 33.6568 56.4017 33.6568Z" fill="#222222"/>
<path d="M69.8017 18.357L70.7017 12.957H73.3017L74.1017 8.45703H79.8017L79.0017 12.957H84.8017L83.9017 18.357H78.1017L76.3017 28.757H82.4017L81.6017 33.657H69.7017L72.4017 18.457H69.8017V18.357Z" fill="#222222"/>
<path d="M96.0001 33.6574C92.9001 33.6574 90.4001 32.7574 88.5001 30.8574C86.5001 28.9574 85.6001 26.5574 85.6001 23.7574C85.6001 20.4574 86.8001 17.6574 89.2001 15.3574C91.6001 12.9574 94.5001 11.8574 97.8001 11.8574C100.9 11.8574 103.4 12.7574 105.3 14.6574C107.3 16.5574 108.2 18.9574 108.2 21.7574C108.2 25.0574 107 27.8574 104.6 30.1574C102.2 32.4574 99.3001 33.6574 96.0001 33.6574ZM96.3001 28.7574C98.0001 28.7574 99.5001 28.1574 100.7 26.8574C101.9 25.5574 102.5 23.8574 102.5 21.7574C102.5 20.1574 102 18.8574 101.1 17.9574C100.2 17.0574 99.0001 16.5574 97.5001 16.5574C95.8001 16.5574 94.3001 17.1574 93.1001 18.4574C91.9001 19.7574 91.3001 21.4574 91.3001 23.5574C91.3001 25.1574 91.8001 26.4574 92.7001 27.3574C93.6001 28.2574 94.8001 28.7574 96.3001 28.7574Z" fill="#222222"/>
<path d="M108.901 33.6574L112.501 12.8574H118.001L117.601 14.8574H118.201L119.901 12.8574H126.501L125.501 18.3574H121.401C119.001 18.3574 117.001 20.0574 116.601 22.3574L116.501 22.7574L114.501 33.5574H108.901V33.6574Z" fill="#222222"/>
</g>
<defs>
<clipPath id="clip0_1_679">
<rect width="125" height="40" fill="white" transform="translate(0.873535)"/>
</clipPath>
</defs>
</svg>
